<?xml version="1.0" encoding="utf-8"?>
<!-- Generator: Adobe Illustrator 22.0.1, SVG Export Plug-In . SVG Version: 6.00 Build 0)  -->
<svg version="1.1" id="Слой_1" xmlns="http://www.w3.org/2000/svg" xmlns:xlink="http://www.w3.org/1999/xlink" x="0px" y="0px"
	 viewBox="0 0 97 48" enable-background="new 0 0 97 48" xml:space="preserve">
<g>
	<path fill="#ef1a48" d="M3.7,47.3C2.4,47,1.2,46.5,0.3,46l1.9-4.3c0.8,0.5,1.8,0.9,2.8,1.2c1,0.3,2,0.4,3,0.4
		c0.8,0,1.4-0.1,1.8-0.2s0.5-0.4,0.5-0.7c0-0.4-0.2-0.6-0.7-0.8c-0.5-0.2-1.2-0.4-2.3-0.6C6,40.6,4.9,40.3,4,39.9s-1.7-0.9-2.4-1.6
		s-1-1.8-1-3c0-1.1,0.3-2.1,0.9-3c0.6-0.9,1.5-1.6,2.8-2.1s2.7-0.8,4.5-0.8c1.2,0,2.4,0.1,3.6,0.4c1.2,0.3,2.2,0.6,3.1,1.1l-1.8,4.3
		c-1.7-0.9-3.4-1.3-4.9-1.3c-1.5,0-2.3,0.4-2.3,1.1c0,0.4,0.2,0.6,0.7,0.8s1.2,0.4,2.2,0.6c1.3,0.3,2.5,0.5,3.4,0.9
		c0.9,0.3,1.7,0.9,2.4,1.6c0.7,0.7,1,1.7,1,3c0,1.1-0.3,2.1-0.9,3c-0.6,0.9-1.5,1.6-2.8,2.1S9.8,47.8,8,47.8
		C6.5,47.8,5.1,47.6,3.7,47.3z"/>
	<path fill="#ef1a48" d="M18,29.8h5.9v17.6H18V29.8z"/>
	<path fill="#0D0E0F" d="M30.6,34.4h-5.2v-4.6h16.2v4.6h-5.2v13h-5.9V34.4z"/>
	<path fill="#0D0E0F" d="M57.8,42.9v4.5H43.2V29.8h14.3v4.5H49v2.1h7.4v4.3H49v2.3H57.8z"/>
	<path fill="#0D0E0F" d="M64.2,46.6c-1.5-0.8-2.7-1.9-3.5-3.3s-1.3-3-1.3-4.8s0.4-3.4,1.3-4.8c0.8-1.4,2-2.5,3.5-3.3s3.2-1.2,5-1.2
		c1.7,0,3.2,0.3,4.6,0.9c1.3,0.6,2.4,1.5,3.3,2.6l-3.7,3.3c-1.1-1.4-2.4-2.1-3.8-2.1c-1.2,0-2.2,0.4-3,1.2c-0.8,0.8-1.1,1.9-1.1,3.2
		c0,1.3,0.4,2.4,1.1,3.2c0.8,0.8,1.8,1.2,3,1.2c1.5,0,2.8-0.7,3.8-2.1l3.7,3.3c-0.9,1.1-2,2-3.3,2.6c-1.3,0.6-2.9,0.9-4.6,0.9
		C67.4,47.8,65.7,47.4,64.2,46.6z"/>
	<path fill="#0D0E0F" d="M96.2,29.8v17.6h-5.9v-6.5h-5.5v6.5h-5.9V29.8h5.9V36h5.5v-6.2H96.2z"/>
</g>
<polygon fill="#ef1a48" points="21.6,0 34,20.4 25,20.4 24,18.4 27.1,18.3 21.5,8.3 15.9,18.4 19,18.4 21.5,22.5 24,18.4 25,20.4 
	21.5,26.4 18,20.4 9,20.4 "/>
</svg>
